# xmcd
# Track frame offsets:
# 150
# 20645
# 44477
# 57092
# 74635
# 90557
# 102955
# 119570
# 141075
#
# Disc length: 2057 seconds
# Revision: 0
# Processed by: cddbd v1.4PL0 Copyright (c) Steve Scherf et al.
# Submitted via: VisiTrax 2.9.3.171 - For more info visit www.synapsa.com
#
DISCID=82080709
DTITLE=Johnny Winter - Il Grande Rock
DYEAR=1900
DGENRE=
TTITLE0=I'm Yours and I'm Hers
TTITLE1=Be Careful With a Fool
TTITLE2=Dallas
TTITLE3=Mean Mistreater
TTITLE4=Leland Mississippi Blues
TTITLE5=Good Morning LIttle Schoolgirl
TTITLE6=When You Got a Good Friend
TTITLE7=I'll Drown in My Tears
TTITLE8=Back Door Friend
EXTD=
EXTT0=
EXTT1=
EXTT2=
EXTT3=
EXTT4=
EXTT5=
EXTT6=
EXTT7=
EXTT8=
PLAYORDER=
